Coordinates
version=1
nRows=13
nColumns=36
inDegrees=yes

Units are S.I. units (second, meters, Newtons, ...)
If the header above contains a line with 'inDegrees', this indicates whether rotational values are in degrees (yes) or radians (no).

endheader
time	pelvis_tilt	pelvis_list	pelvis_rotation	pelvis_tx	pelvis_ty	pelvis_tz	hip_flexion_r	hip_adduction_r	hip_rotation_r	knee_angle_r	knee_angle_r_beta	ankle_angle_r	subtalar_angle_r	mtp_angle_r	hip_flexion_l	hip_adduction_l	hip_rotation_l	knee_angle_l	knee_angle_l_beta	ankle_angle_l	subtalar_angle_l	mtp_angle_l	lumbar_extension	lumbar_bending	lumbar_rotation	arm_flex_r	arm_add_r	arm_rot_r	elbow_flex_r	pro_sup_r	arm_flex_l	arm_add_l	arm_rot_l	elbow_flex_l	pro_sup_l
      3.29000000	    -36.90463520	     -6.04275290	      2.21232938	     -0.32665086	      0.84239857	     -0.63626468	     69.81386685	     -7.28872478	     -9.16711914	     41.43841942	      0.72323686	     12.75763027	     -1.52207487	     -7.49999987	     68.30977100	    -23.49002308	     -7.00780089	     29.98133263	      0.52327297	      9.57407431	     11.34866243	     -7.49999987	     -9.64880418	      2.24338404	     -4.90653655	     80.21942169	    -21.35557718	     20.75609381	    123.86708925	    109.04505364	     92.13852412	    -20.50192249	     28.75664834	    116.64397253	    108.82732069
      3.30000000	    -37.54467548	     -6.09595742	      2.29210705	     -0.33025486	      0.83655343	     -0.63374931	     71.54059385	     -7.52674838	     -9.38411330	     42.98780076	      0.75027866	     13.30024450	     -1.41108808	     -7.49999987	     70.15111996	    -23.84386968	     -6.93443580	     31.46795814	      0.54921948	     10.56554026	     11.25581824	     -7.49999987	    -10.37207388	      2.17030397	     -4.84837557	     82.23766210	    -21.36502557	     20.96907500	    123.81241840	    108.95641723	     94.39043006	    -20.22394681	     29.29576361	    115.99895494	    108.82019153
      3.31000000	    -38.15362397	     -6.09065166	      2.38156855	     -0.33353077	      0.83069841	     -0.63129893	     73.24066174	     -7.81569949	     -9.54703755	     44.56466049	      0.77780006	     13.61401765	     -1.49596971	     -7.49999987	     71.90172843	    -24.17462875	     -6.90340313	     32.87849223	      0.57383794	     10.93017383	     10.95890567	     -7.49999987	    -11.04044639	      2.19777835	     -4.85857296	     84.23461290	    -21.05827169	     21.21423160	    123.61556626	    108.95506721	     96.17469854	    -20.00584175	     29.33391449	    115.57449843	    108.78943247
      3.32000000	    -38.85721780	     -6.40067469	      2.37841516	     -0.33684542	      0.82419996	     -0.62827004	     74.98635463	     -7.82662360	     -9.86667475	     46.10680261	      0.80471551	     14.10426528	     -1.57840487	     -7.49999987	     74.01949776	    -24.79959807	     -6.57503014	     34.31194227	      0.59885637	     11.17073307	     10.63993561	     -7.49999987	    -11.49856687	      2.50182976	     -4.72826829	     86.17548431	    -20.77567320	     21.61975680	    123.27585873	    108.96856718	     97.94730305	    -19.86310475	     29.55774110	    115.11463522	    108.75530317
      3.33000000	    -39.67159313	     -7.21735945	      2.25981472	     -0.34005300	      0.81714713	     -0.62480747	     76.66762727	     -7.51808557	    -10.68171690	     47.43834604	      0.82795533	     14.83114852	     -1.59111675	     -7.49999987	     76.60068307	    -25.69115355	     -5.55672213	     35.72982420	      0.62360307	     11.20412526	     10.34516495	     -7.49999987	    -11.67555518	      3.32404106	     -4.47944401	     88.01736111	    -20.56156517	     22.39778674	    122.79537846	    108.95917569	     99.47910732	    -19.86827824	     30.01816334	    114.70710179	    108.71401002
      3.34000000	    -40.21632819	     -7.69592146	      2.25263915	     -0.34272957	      0.81069917	     -0.62186577	     78.14052149	     -7.50740226	    -11.23397109	     48.90144431	      0.85349121	     15.31108597	     -1.66967359	     -7.49999987	     78.56078902	    -26.31487114	     -5.09306602	     36.90720029	      0.64415216	     11.07466988	     10.19189080	     -7.49999987	    -12.15694608	      3.77113549	     -4.31705811	     89.54028337	    -20.26703901	     22.79111561	    122.46767253	    108.90435900	    100.91931872	    -19.76148204	     30.33072007	    114.32251384	    108.68649345
      3.35000000	    -40.50499731	     -7.79723484	      2.37759268	     -0.34477368	      0.80510239	     -0.61969763	     79.36168043	     -7.84952045	    -11.61822826	     50.38369000	      0.87936128	     15.64789259	     -1.73113722	     -7.49999987	     79.80430948	    -26.60373008	     -5.01633628	     37.84892577	      0.66058837	     11.10082926	     10.13716960	     -7.49999987	    -12.95836581	      3.87618056	     -4.27596695	     90.83132529	    -19.89075665	     22.88273359	    122.30941531	    108.88908687	    102.17105946	    -19.49534356	     30.34157539	    114.09827451	    108.66876335
      3.36000000	    -40.78352284	     -7.92991981	      2.52984454	     -0.34667353	      0.79943768	     -0.61749426	     80.56134739	     -8.19956719	    -11.99146243	     51.89401681	      0.90572146	     16.11663675	     -1.72648112	     -7.49999987	     81.06991832	    -26.85031120	     -4.86731815	     38.82169032	      0.67756632	     11.35071791	     10.20046795	     -7.49999987	    -13.71908769	      4.01537717	     -4.24303527	     92.07960784	    -19.55070764	     23.03899014	    122.14477418	    108.89385035	    103.38088256	    -19.27891921	     30.43585742	    113.87891630	    108.65659457
      3.37000000	    -41.17338697	     -8.12208583	      2.61750422	     -0.34860151	      0.79339653	     -0.61494996	     81.87812209	     -8.44873094	    -12.35981807	     53.40365962	      0.93206969	     16.65373269	     -1.68902749	     -7.49999987	     82.55182278	    -27.16235921	     -4.58787496	     39.91340190	      0.69662028	     11.80973528	     10.42513661	     -7.49999987	    -14.29704102	      4.16591073	     -4.12247334	     93.27147533	    -19.23302483	     23.28351432	    122.00967059	    108.89515648	    104.53177117	    -19.09225235	     30.62348210	    113.71206943	    108.64517862
      3.38000000	    -41.50561684	     -8.43005854	      2.75021390	     -0.35039631	      0.78744295	     -0.61260890	     83.04495180	     -8.73777325	    -12.87229969	     54.82958085	      0.95695671	     17.72614968	     -1.06901184	     -7.49999987	     84.11740755	    -27.45839877	     -4.08508656	     41.18739332	      0.71885562	     13.09578758	     11.41319816	     -7.49999987	    -14.88689899	      4.50535822	     -3.97396875	     94.54083633	    -18.97297482	     23.83757833	    121.77893238	    108.84238362	    105.62944290	    -19.12133227	     31.02083882	    113.69808212	    108.60389445
      3.39000000	    -41.83824186	     -8.44316709	      2.93813011	     -0.35209755	      0.78174273	     -0.61050396	     84.31368831	     -9.11743573	    -12.95751966	     56.29835928	      0.98259173	     18.02230388	     -1.18145795	     -7.49999987	     85.43223331	    -27.56515939	     -3.90850017	     42.36163090	      0.73934994	     13.48394355	     11.39280867	     -7.49999987	    -15.50157147	      4.48493096	     -3.92352333	     95.52162981	    -18.72251304	     23.85645658	    121.82232930	    108.83096958	    106.57458705	    -18.88880830	     30.98495465	    113.72118536	    108.59178493
      3.40000000	    -42.13368233	     -8.57854592	      3.10030177	     -0.35353898	      0.77600429	     -0.60848824	     85.46978962	     -9.39824379	    -13.09825176	     57.70948176	      1.00722047	     18.65025944	     -1.23928507	     -7.49999987	     86.84507502	    -27.68470400	     -3.40631686	     43.68393594	      0.76242851	     14.44886592	     11.26239894	     -7.49999987	    -16.07093140	      4.61361187	     -3.89682700	     96.39527259	    -18.46919149	     24.21975473	    121.76001747	    108.81472743	    107.54666701	    -18.76460696	     31.30104884	    113.70209521	    108.60775989
      3.41000000	    -42.42880858	     -8.64187905	      3.18626379	     -0.35480532	      0.77026740	     -0.60625063	     86.65091627	     -9.55249466	    -13.04187218	     59.11697035	      1.03178578	     19.08097525	     -1.37265733	     -7.49999987	     88.16917532	    -27.89201104	     -2.96907344	     44.87139994	      0.78315367	     14.96420231	     11.10100908	     -7.49999987	    -16.64195756	      4.61706833	     -3.78463751	     97.22097054	    -18.21578771	     24.34272466	    121.82596009	    108.80690459	    108.42397020	    -18.60207032	     31.36704435	    113.83315970	    108.62861882
